<svg width="162" height="188" viewBox="0 0 162 188" fill="none" xmlns="http://www.w3.org/2000/svg">
<path d="M52.1839 -5.01533C52.1839 3.81277 45.0273 10.9693 36.1992 10.9693C27.3711 10.9693 20.2145 3.81277 20.2145 -5.01533C20.2145 -13.8434 27.3711 -21 36.1992 -21C45.0273 -21 52.1839 -13.8434 52.1839 -5.01533ZM23.4152 -5.01533C23.4152 2.04507 29.1388 7.76865 36.1992 7.76865C43.2596 7.76865 48.9832 2.04507 48.9832 -5.01533C48.9832 -12.0757 43.2596 -17.7993 36.1992 -17.7993C29.1388 -17.7993 23.4152 -12.0757 23.4152 -5.01533Z" fill="white" fill-opacity="0.1"/>
<path d="M80.728 68.0575C80.728 76.8856 73.5714 84.0421 64.7433 84.0421C55.9152 84.0421 48.7586 76.8856 48.7586 68.0575C48.7586 59.2294 55.9152 52.0728 64.7433 52.0728C73.5714 52.0728 80.728 59.2294 80.728 68.0575ZM51.9593 68.0575C51.9593 75.1179 57.6829 80.8414 64.7433 80.8414C71.8037 80.8414 77.5273 75.1179 77.5273 68.0575C77.5273 60.9971 71.8037 55.2735 64.7433 55.2735C57.6829 55.2735 51.9593 60.9971 51.9593 68.0575Z" fill="white" fill-opacity="0.1"/>
<path d="M86.4368 203.356C86.4368 242.137 54.9989 273.575 16.2184 273.575C-22.5622 273.575 -54 242.137 -54 203.356C-54 164.576 -22.5622 133.138 16.2184 133.138C54.9989 133.138 86.4368 164.576 86.4368 203.356ZM-27.4038 203.356C-27.4038 227.448 -7.8735 246.979 16.2184 246.979C40.3103 246.979 59.8406 227.448 59.8406 203.356C59.8406 179.264 40.3103 159.734 16.2184 159.734C-7.8735 159.734 -27.4038 179.264 -27.4038 203.356Z" fill="white" fill-opacity="0.1"/>
<path d="M244 88.0383C244 126.819 212.562 158.257 173.782 158.257C135.001 158.257 103.563 126.819 103.563 88.0383C103.563 49.2578 135.001 17.8199 173.782 17.8199C212.562 17.8199 244 49.2578 244 88.0383ZM124.243 88.0383C124.243 115.398 146.422 137.577 173.782 137.577C201.141 137.577 223.32 115.398 223.32 88.0383C223.32 60.6788 201.141 38.4996 173.782 38.4996C146.422 38.4996 124.243 60.6788 124.243 88.0383Z" fill="white" fill-opacity="0.1"/>
</svg>
